<svg width="18" height="15" viewBox="0 0 18 15" fill="none" xmlns="http://www.w3.org/2000/svg">
<path fill-rule="evenodd" clip-rule="evenodd" d="M0.599609 1.50078C0.599609 1.18252 0.726038 0.877297 0.951081 0.652253C1.17612 0.42721 1.48135 0.300781 1.79961 0.300781H16.1996C16.5179 0.300781 16.8231 0.42721 17.0481 0.652253C17.2732 0.877297 17.3996 1.18252 17.3996 1.50078C17.3996 1.81904 17.2732 2.12427 17.0481 2.34931C16.8231 2.57435 16.5179 2.70078 16.1996 2.70078H1.79961C1.48135 2.70078 1.17612 2.57435 0.951081 2.34931C0.726038 2.12427 0.599609 1.81904 0.599609 1.50078Z" fill="#2F2F37"/>
<path fill-rule="evenodd" clip-rule="evenodd" d="M0.599609 7.50078C0.599609 7.18252 0.726038 6.8773 0.951081 6.65225C1.17612 6.42721 1.48135 6.30078 1.79961 6.30078H16.1996C16.5179 6.30078 16.8231 6.42721 17.0481 6.65225C17.2732 6.8773 17.3996 7.18252 17.3996 7.50078C17.3996 7.81904 17.2732 8.12427 17.0481 8.34931C16.8231 8.57435 16.5179 8.70078 16.1996 8.70078H1.79961C1.48135 8.70078 1.17612 8.57435 0.951081 8.34931C0.726038 8.12427 0.599609 7.81904 0.599609 7.50078Z" fill="#2F2F37"/>
<path fill-rule="evenodd" clip-rule="evenodd" d="M0.599609 13.5008C0.599609 13.1825 0.726038 12.8773 0.951081 12.6523C1.17612 12.4272 1.48135 12.3008 1.79961 12.3008H16.1996C16.5179 12.3008 16.8231 12.4272 17.0481 12.6523C17.2732 12.8773 17.3996 13.1825 17.3996 13.5008C17.3996 13.819 17.2732 14.1243 17.0481 14.3493C16.8231 14.5744 16.5179 14.7008 16.1996 14.7008H1.79961C1.48135 14.7008 1.17612 14.5744 0.951081 14.3493C0.726038 14.1243 0.599609 13.819 0.599609 13.5008Z" fill="#2F2F37"/>
</svg>
